<svg width="36" height="37" viewBox="0 0 36 37" fill="none" xmlns="http://www.w3.org/2000/svg">
<mask id="mask0_2_43" style="mask-type:alpha" maskUnits="userSpaceOnUse" x="0" y="0" width="36" height="37">
<rect y="0.408081" width="36" height="36" fill="#D9D9D9"/>
</mask>
<g mask="url(#mask0_2_43)">
<path d="M9.75 30.4081C7.475 30.4081 5.53125 29.6206 3.91875 28.0456C2.30625 26.4706 1.5 24.5456 1.5 22.2706C1.5 20.3206 2.0875 18.5831 3.2625 17.0581C4.4375 15.5331 5.975 14.5581 7.875 14.1331C8.5 11.8331 9.75 9.97058 11.625 8.54558C13.5 7.12058 15.625 6.40808 18 6.40808C20.925 6.40808 23.4063 7.42683 25.4438 9.46433C27.4813 11.5018 28.5 13.9831 28.5 16.9081C30.225 17.1081 31.6563 17.8518 32.7938 19.1393C33.9313 20.4268 34.5 21.9331 34.5 23.6581C34.5 25.5331 33.8438 27.1268 32.5312 28.4393C31.2188 29.7518 29.625 30.4081 27.75 30.4081H9.75ZM9.75 27.4081H27.75C28.8 27.4081 29.6875 27.0456 30.4125 26.3206C31.1375 25.5956 31.5 24.7081 31.5 23.6581C31.5 22.6081 31.1375 21.7206 30.4125 20.9956C29.6875 20.2706 28.8 19.9081 27.75 19.9081H25.5V16.9081C25.5 14.8331 24.7688 13.0643 23.3063 11.6018C21.8438 10.1393 20.075 9.40808 18 9.40808C15.925 9.40808 14.1563 10.1393 12.6938 11.6018C11.2313 13.0643 10.5 14.8331 10.5 16.9081H9.75C8.3 16.9081 7.0625 17.4206 6.0375 18.4456C5.0125 19.4706 4.5 20.7081 4.5 22.1581C4.5 23.6081 5.0125 24.8456 6.0375 25.8706C7.0625 26.8956 8.3 27.4081 9.75 27.4081Z" fill="white"/>
</g>
</svg>
