<svg width="140" height="141" viewBox="0 0 140 141" fill="none" xmlns="http://www.w3.org/2000/svg">
<mask id="mask0_2_21" style="mask-type:alpha" maskUnits="userSpaceOnUse" x="0" y="0" width="140" height="141">
<rect y="0.772034" width="140" height="140" fill="#D9D9D9"/>
</mask>
<g mask="url(#mask0_2_21)">
<path d="M37.9166 117.439C28.9722 117.439 21.3889 114.328 15.1666 108.105C8.94442 101.883 5.83331 94.2998 5.83331 85.3553C5.83331 77.772 8.19095 71.088 12.9062 65.3033C17.6215 59.5185 23.5278 55.7998 30.625 54.147C33.0555 45.397 37.868 38.2026 45.0625 32.5637C52.2569 26.9248 60.5694 24.1053 70 24.1053C81.5694 24.1053 91.2673 28.1158 99.0937 36.1366C106.92 44.1574 110.833 53.7581 110.833 64.9387C118.125 65.7165 123.837 68.7303 127.969 73.9803C132.101 79.2303 134.167 84.9179 134.167 91.0429C134.167 98.3345 131.615 104.557 126.51 109.71C121.406 114.862 115.208 117.439 107.917 117.439H37.9166ZM37.9166 105.772H107.917C112 105.772 115.451 104.362 118.271 101.543C121.09 98.7234 122.5 95.272 122.5 91.1887C122.5 87.1053 121.09 83.654 118.271 80.8345C115.451 78.0151 112 76.6053 107.917 76.6053H99.1666V64.9387C99.1666 56.8692 96.3229 49.9908 90.6354 44.3033C84.9479 38.6158 78.0694 35.772 70 35.772C63.875 35.772 58.4305 37.4491 53.6666 40.8033C48.9028 44.1574 45.4028 48.4595 43.1666 53.7095C50.75 54.9734 57.118 58.5463 62.2708 64.4283C67.4236 70.3102 70 77.2859 70 85.3553H58.3333C58.3333 79.7165 56.3403 74.904 52.3541 70.9179C48.368 66.9317 43.5555 64.9387 37.9166 64.9387C32.2778 64.9387 27.4653 66.9317 23.4791 70.9179C19.493 74.904 17.5 79.7165 17.5 85.3553C17.5 90.9942 19.493 95.8067 23.4791 99.7929C27.4653 103.779 32.2778 105.772 37.9166 105.772Z" fill="white"/>
</g>
</svg>
