<svg width="36" height="37" viewBox="0 0 36 37" fill="none" xmlns="http://www.w3.org/2000/svg">
<mask id="mask0_2_36" style="mask-type:alpha" maskUnits="userSpaceOnUse" x="0" y="0" width="36" height="37">
<rect y="0.408081" width="36" height="36" fill="#D9D9D9"/>
</mask>
<g mask="url(#mask0_2_36)">
<path d="M18 32.6581C14.675 32.6581 11.8438 31.5081 9.50625 29.2081C7.16875 26.9081 6 24.1081 6 20.8081C6 19.2331 6.30625 17.7268 6.91875 16.2893C7.53125 14.8518 8.4 13.5831 9.525 12.4831L18 4.15808L26.475 12.4831C27.6 13.5831 28.4687 14.8518 29.0812 16.2893C29.6937 17.7268 30 19.2331 30 20.8081C30 24.1081 28.8313 26.9081 26.4938 29.2081C24.1563 31.5081 21.325 32.6581 18 32.6581ZM18 29.6581C20.5 29.6581 22.625 28.8018 24.375 27.0893C26.125 25.3768 27 23.2831 27 20.8081C27 19.6331 26.775 18.5143 26.325 17.4518C25.875 16.3893 25.225 15.4581 24.375 14.6581L18 8.35808L11.625 14.6581C10.775 15.4581 10.125 16.3893 9.675 17.4518C9.225 18.5143 9 19.6331 9 20.8081C9 23.2831 9.875 25.3768 11.625 27.0893C13.375 28.8018 15.5 29.6581 18 29.6581Z" fill="white"/>
</g>
</svg>
