<svg width="36" height="36" viewBox="0 0 36 36" fill="none" xmlns="http://www.w3.org/2000/svg">
<mask id="mask0_2_294" style="mask-type:alpha" maskUnits="userSpaceOnUse" x="0" y="0" width="36" height="36">
<rect width="36" height="36" fill="#D9D9D9"/>
</mask>
<g mask="url(#mask0_2_294)">
<path d="M20.925 32.85C20.55 33.05 20.1687 33.0812 19.7812 32.9437C19.3938 32.8062 19.1 32.55 18.9 32.175L16.65 27.675C16.45 27.3 16.4188 26.9187 16.5563 26.5312C16.6938 26.1438 16.95 25.85 17.325 25.65C17.7 25.45 18.0813 25.4188 18.4688 25.5563C18.8562 25.6938 19.15 25.95 19.35 26.325L21.6 30.825C21.8 31.2 21.8313 31.5813 21.6938 31.9688C21.5563 32.3562 21.3 32.65 20.925 32.85ZM29.925 32.85C29.55 33.05 29.1687 33.0812 28.7812 32.9437C28.3938 32.8062 28.1 32.55 27.9 32.175L25.65 27.675C25.45 27.3 25.4188 26.9187 25.5563 26.5312C25.6938 26.1438 25.95 25.85 26.325 25.65C26.7 25.45 27.0813 25.4188 27.4688 25.5563C27.8562 25.6938 28.15 25.95 28.35 26.325L30.6 30.825C30.8 31.2 30.8312 31.5813 30.6937 31.9688C30.5562 32.3562 30.3 32.65 29.925 32.85ZM11.925 32.85C11.55 33.05 11.1687 33.0812 10.7812 32.9437C10.3938 32.8062 10.1 32.55 9.9 32.175L7.65 27.675C7.45 27.3 7.41875 26.9187 7.55625 26.5312C7.69375 26.1438 7.95 25.85 8.325 25.65C8.7 25.45 9.08125 25.4188 9.46875 25.5563C9.85625 25.6938 10.15 25.95 10.35 26.325L12.6 30.825C12.8 31.2 12.8313 31.5813 12.6938 31.9688C12.5563 32.3562 12.3 32.65 11.925 32.85ZM11.25 24C8.975 24 7.03125 23.1937 5.41875 21.5812C3.80625 19.9687 3 18.025 3 15.75C3 13.675 3.6875 11.8625 5.0625 10.3125C6.4375 8.7625 8.1375 7.85 10.1625 7.575C10.9625 6.15 12.0563 5.03125 13.4438 4.21875C14.8313 3.40625 16.35 3 18 3C20.25 3 22.2063 3.71875 23.8688 5.15625C25.5313 6.59375 26.5375 8.3875 26.8875 10.5375C28.6125 10.6875 30.0625 11.4 31.2375 12.675C32.4125 13.95 33 15.475 33 17.25C33 19.125 32.3438 20.7188 31.0312 22.0312C29.7188 23.3438 28.125 24 26.25 24H11.25ZM11.25 21H26.25C27.3 21 28.1875 20.6375 28.9125 19.9125C29.6375 19.1875 30 18.3 30 17.25C30 16.2 29.6375 15.3125 28.9125 14.5875C28.1875 13.8625 27.3 13.5 26.25 13.5H24V12C24 10.35 23.4125 8.9375 22.2375 7.7625C21.0625 6.5875 19.65 6 18 6C16.8 6 15.7063 6.325 14.7188 6.975C13.7312 7.625 12.9875 8.5 12.4875 9.6L12.1125 10.5H11.175C9.75 10.55 8.53125 11.0812 7.51875 12.0938C6.50625 13.1063 6 14.325 6 15.75C6 17.2 6.5125 18.4375 7.5375 19.4625C8.5625 20.4875 9.8 21 11.25 21Z" fill="white"/>
</g>
</svg>
