<svg width="36" height="37" viewBox="0 0 36 37" fill="none" xmlns="http://www.w3.org/2000/svg">
<mask id="mask0_2_50" style="mask-type:alpha" maskUnits="userSpaceOnUse" x="0" y="0" width="36" height="37">
<rect y="0.408081" width="36" height="36" fill="#D9D9D9"/>
</mask>
<g mask="url(#mask0_2_50)">
<path d="M18 33.4081C15.925 33.4081 14.1562 32.6768 12.6937 31.2143C11.2312 29.7518 10.5 27.9831 10.5 25.9081C10.5 24.7081 10.7625 23.5893 11.2875 22.5518C11.8125 21.5143 12.55 20.6331 13.5 19.9081V7.90808C13.5 6.65808 13.9375 5.59558 14.8125 4.72058C15.6875 3.84558 16.75 3.40808 18 3.40808C19.25 3.40808 20.3125 3.84558 21.1875 4.72058C22.0625 5.59558 22.5 6.65808 22.5 7.90808V19.9081C23.45 20.6331 24.1875 21.5143 24.7125 22.5518C25.2375 23.5893 25.5 24.7081 25.5 25.9081C25.5 27.9831 24.7688 29.7518 23.3063 31.2143C21.8438 32.6768 20.075 33.4081 18 33.4081ZM16.5 16.9081H19.5V15.4081H18V13.9081H19.5V10.9081H18V9.40808H19.5V7.90808C19.5 7.48308 19.3563 7.12683 19.0688 6.83933C18.7813 6.55183 18.425 6.40808 18 6.40808C17.575 6.40808 17.2187 6.55183 16.9312 6.83933C16.6437 7.12683 16.5 7.48308 16.5 7.90808V16.9081Z" fill="white"/>
</g>
</svg>
