<svg width="36" height="37" viewBox="0 0 36 37" fill="none" xmlns="http://www.w3.org/2000/svg">
<mask id="mask0_2_29" style="mask-type:alpha" maskUnits="userSpaceOnUse" x="0" y="0" width="36" height="37">
<rect y="0.408081" width="36" height="36" fill="#D9D9D9"/>
</mask>
<g mask="url(#mask0_2_29)">
<path d="M17.25 30.4081C16 30.4081 14.9375 29.9706 14.0625 29.0956C13.1875 28.2206 12.75 27.1581 12.75 25.9081H15.75C15.75 26.3331 15.8938 26.6893 16.1813 26.9768C16.4688 27.2643 16.825 27.4081 17.25 27.4081C17.675 27.4081 18.0313 27.2643 18.3188 26.9768C18.6063 26.6893 18.75 26.3331 18.75 25.9081C18.75 25.4831 18.6063 25.1268 18.3188 24.8393C18.0313 24.5518 17.675 24.4081 17.25 24.4081H3V21.4081H17.25C18.5 21.4081 19.5625 21.8456 20.4375 22.7206C21.3125 23.5956 21.75 24.6581 21.75 25.9081C21.75 27.1581 21.3125 28.2206 20.4375 29.0956C19.5625 29.9706 18.5 30.4081 17.25 30.4081ZM3 15.4081V12.4081H23.25C23.9 12.4081 24.4375 12.1956 24.8625 11.7706C25.2875 11.3456 25.5 10.8081 25.5 10.1581C25.5 9.50808 25.2875 8.97058 24.8625 8.54558C24.4375 8.12058 23.9 7.90808 23.25 7.90808C22.6 7.90808 22.0625 8.12058 21.6375 8.54558C21.2125 8.97058 21 9.50808 21 10.1581H18C18 8.68308 18.5062 7.43933 19.5187 6.42683C20.5312 5.41433 21.775 4.90808 23.25 4.90808C24.725 4.90808 25.9688 5.41433 26.9813 6.42683C27.9938 7.43933 28.5 8.68308 28.5 10.1581C28.5 11.6331 27.9938 12.8768 26.9813 13.8893C25.9688 14.9018 24.725 15.4081 23.25 15.4081H3ZM27.75 27.4081V24.4081C28.4 24.4081 28.9375 24.1956 29.3625 23.7706C29.7875 23.3456 30 22.8081 30 22.1581C30 21.5081 29.7875 20.9706 29.3625 20.5456C28.9375 20.1206 28.4 19.9081 27.75 19.9081H3V16.9081H27.75C29.225 16.9081 30.4688 17.4143 31.4813 18.4268C32.4938 19.4393 33 20.6831 33 22.1581C33 23.6331 32.4938 24.8768 31.4813 25.8893C30.4688 26.9018 29.225 27.4081 27.75 27.4081Z" fill="white"/>
</g>
</svg>
